<?xml version="1.0" encoding="UTF-8" standalone="no"?>
<!-- Created with Inkscape (http://www.inkscape.org/) -->

<svg
   xmlns:dc="http://purl.org/dc/elements/1.1/"
   xmlns:cc="http://creativecommons.org/ns#"
   xmlns:rdf="http://www.w3.org/1999/02/22-rdf-syntax-ns#"
   xmlns:svg="http://www.w3.org/2000/svg"
   xmlns="http://www.w3.org/2000/svg"
   version="1.1"
   width="431.3125"
   height="301.28125"
   id="svg4699">
  <defs
     id="defs4701" />
  <metadata
     id="metadata4704">
    <rdf:RDF>
      <cc:Work
         rdf:about="">
        <dc:format>image/svg+xml</dc:format>
        <dc:type
           rdf:resource="http://purl.org/dc/dcmitype/StillImage" />
        <dc:title></dc:title>
      </cc:Work>
    </rdf:RDF>
  </metadata>
  <g
     transform="translate(-175.78125,-313.15625)"
     id="layer1">
    <rect
       width="409.99994"
       height="280"
       x="186.4286"
       y="323.79074"
       id="rect3840"
       style="fill:#0000ff;fill-opacity:0;stroke:#000000;stroke-width:21.29999924;stroke-linejoin:miter;stroke-miterlimit:4;stroke-opacity:1;stroke-dasharray:none" />
    <rect
       width="60"
       height="60.000011"
       ry="0"
       x="483.79074"
       y="-536.42853"
       transform="matrix(0,1,-1,0,0,0)"
       id="rect3777-7"
       style="fill:#000000" />
    <rect
       width="60.000015"
       height="60.000011"
       ry="0"
       x="383.79074"
       y="-536.42853"
       transform="matrix(0,1,-1,0,0,0)"
       id="rect3777-20"
       style="fill:#000000" />
    <rect
       width="59.999981"
       height="60.000011"
       ry="0"
       x="383.79074"
       y="-426.42853"
       transform="matrix(0,1,-1,0,0,0)"
       id="rect3777-20-1"
       style="fill:#000000" />
    <rect
       width="59.999989"
       height="60.000011"
       ry="0"
       x="383.79074"
       y="-306.42853"
       transform="matrix(0,1,-1,0,0,0)"
       id="rect3777-20-0"
       style="fill:#000000" />
    <rect
       width="60"
       height="60.000011"
       ry="0"
       x="483.79074"
       y="-306.42853"
       transform="matrix(0,1,-1,0,0,0)"
       id="rect3777-20-2"
       style="fill:#000000" />
    <rect
       width="60"
       height="60.000011"
       ry="0"
       x="483.79074"
       y="-426.42853"
       transform="matrix(0,1,-1,0,0,0)"
       id="rect3777-20-6"
       style="fill:#000000" />
  </g>
</svg>
